<svg width="17" height="51" viewBox="0 0 17 51" fill="none" xmlns="http://www.w3.org/2000/svg">
<path d="M11.2296 6.19387C14.6174 7.35515 17 10.4875 17 14.0689L17 36.0292C17 39.5781 14.66 42.6912 11.3104 43.8636C6.3691 45.5932 0 48.1785 0 50.0142C0 51.0151 0 -0.985624 0 0.0142371C0 1.9633 6.29996 4.50408 11.2296 6.19387Z" fill="white"/>
<path d="M6.57574 24.5909C6.34142 24.8252 6.34142 25.2051 6.57574 25.4394L10.3941 29.2578C10.6284 29.4921 11.0083 29.4921 11.2426 29.2578C11.477 29.0235 11.477 28.6436 11.2426 28.4092L7.84853 25.0151L11.2426 21.621C11.477 21.3867 11.477 21.0068 11.2426 20.7725C11.0083 20.5382 10.6284 20.5382 10.3941 20.7725L6.57574 24.5909ZM8 25.0151V24.4151H7V25.0151V25.6151H8V25.0151Z" fill="#E80645"/>
</svg>
