<svg width="40" height="40" viewBox="0 0 40 40" fill="none" xmlns="http://www.w3.org/2000/svg">
<g filter="url(#filter0_f_88_186)">
<path d="M9.5 22.5981C7.5 21.4434 7.5 18.5566 9.5 17.4019L23 9.60769C25 8.45299 27.5 9.89637 27.5 12.2058L27.5 27.7942C27.5 30.1036 25 31.547 23 30.3923L9.5 22.5981Z" fill="#E80645"/>
</g>
<path d="M4.5 22.5981C2.5 21.4434 2.5 18.5566 4.5 17.4019L25.5 5.27757C27.5 4.12286 30 5.56624 30 7.87564L30 32.1244C30 34.4338 27.5 35.8771 25.5 34.7224L4.5 22.5981Z" fill="#E80645"/>
<path d="M24 15L16 19.5L24 24" stroke="white" stroke-width="1.5" stroke-linecap="round" stroke-linejoin="round"/>
<defs>
<filter id="filter0_f_88_186" x="2" y="3.20129" width="31.5" height="33.5974" filterUnits="userSpaceOnUse" color-interpolation-filters="sRGB">
<feFlood flood-opacity="0" result="BackgroundImageFix"/>
<feBlend mode="normal" in="SourceGraphic" in2="BackgroundImageFix" result="shape"/>
<feGaussianBlur stdDeviation="3" result="effect1_foregroundBlur_88_186"/>
</filter>
</defs>
</svg>
