<svg version="1.1" xmlns="http://www.w3.org/2000/svg" xmlns:xlink="http://www.w3.org/1999/xlink" width="48" height="48" viewBox="0,0,256,256">
                                                        <defs>
                                                            <linearGradient x1="27.5" y1="-12.054" x2="27.5" y2="56.353" gradientUnits="userSpaceOnUse" id="color-1">
                                                                <stop offset="0" stop-color="#ff6201"></stop>
                                                                <stop offset="0.689" stop-color="#fdbd19"></stop>
                                                                <stop offset="1" stop-color="#fce724"></stop>
                                                            </linearGradient>
                                                            <linearGradient x1="21" y1="27.91" x2="21" y2="67.346" gradientUnits="userSpaceOnUse" id="color-2">
                                                                <stop offset="0" stop-color="#f4805d" stop-opacity="0.4"></stop>
                                                                <stop offset="1" stop-color="#ffd8bb" stop-opacity="0.4"></stop>
                                                            </linearGradient>
                                                            <linearGradient x1="21" y1="42.755" x2="21" y2="6.717" gradientUnits="userSpaceOnUse" id="color-3">
                                                                <stop offset="0" stop-color="#fffff0" stop-opacity="0.3"></stop>
                                                                <stop offset="1" stop-color="#ff9a83" stop-opacity="0.4"></stop>
                                                            </linearGradient>
                                                            <linearGradient x1="27.5" y1="-12.054" x2="27.5" y2="56.353" gradientUnits="userSpaceOnUse" id="color-1">
                                                                <stop offset="0" stop-color="#ff6201"></stop>
                                                                <stop offset="0.689" stop-color="#fdbd19"></stop>
                                                                <stop offset="1" stop-color="#fce724"></stop>
                                                            </linearGradient>
                                                            <linearGradient x1="21" y1="27.91" x2="21" y2="67.346" gradientUnits="userSpaceOnUse" id="color-2">
                                                                <stop offset="0" stop-color="#f4805d" stop-opacity="0.4"></stop>
                                                                <stop offset="1" stop-color="#ffd8bb" stop-opacity="0.4"></stop>
                                                            </linearGradient>
                                                            <linearGradient x1="21" y1="42.755" x2="21" y2="6.717" gradientUnits="userSpaceOnUse" id="color-3">
                                                                <stop offset="0" stop-color="#fffff0" stop-opacity="0.3"></stop>
                                                                <stop offset="1" stop-color="#ff9a83" stop-opacity="0.4"></stop>
                                                            </linearGradient>
                                                        </defs>
                                                        <g fill="none" fill-rule="nonzero" stroke="none" stroke-width="1" stroke-linecap="butt" stroke-linejoin="miter" stroke-miterlimit="10" stroke-dasharray="" stroke-dashoffset="0" font-family="none" font-weight="none" font-size="none" text-anchor="none" style="mix-blend-mode: normal">
                                                            <g transform="scale(5.33333,5.33333)" fill="none">
                                                                <path d="M36,34c0,7 -5,12 -12,12c-2.15,0 -4.14,-0.34 -5.96,-0.97c-0.96,-0.32 -1.87,-0.72 -2.73,-1.19c-0.77,-0.42 -1.49,-0.89 -2.17,-1.42c-0.65,-0.49 -1.26,-1.02 -1.82,-1.59c-0.97,-2.05 -1.52,-4.37 -1.52,-6.83c0,-6.84 4.08,-11.07 8.4,-15.55c2.15,-2.23 4.34,-4.5 5.84,-7.13c0.13,0.3 0.28,0.59 0.42,0.88c0.14,0.28 0.29,0.55 0.44,0.82c0.14,0.26 0.28,0.52 0.44,0.78c4.14,7.08 10.66,12.01 10.66,20.2z" fill="#FF8E0B" opacity="0.1"></path>
                                                                <path d="M36,34c0,7 -5,12 -12,12c-2.15,0 -4.14,-0.34 -5.96,-0.97c-0.96,-0.32 -1.87,-0.72 -2.73,-1.19c-0.77,-0.42 -1.49,-0.89 -2.17,-1.42c-1.6,-2.37 -2.54,-5.28 -2.54,-8.42c0,-6.52 3.97,-10.64 8.17,-15c2.06,-2.13 4.16,-4.3 5.69,-6.8c0.14,0.28 0.29,0.55 0.44,0.82c0.14,0.26 0.28,0.52 0.44,0.78c4.14,7.08 10.66,12.01 10.66,20.2z" fill="#FF8E0B" opacity="0.2"></path>
                                                                <path d="M36,34c0,7 -5,12 -12,12c-2.15,0 -4.14,-0.34 -5.96,-0.97c-0.96,-0.32 -1.87,-0.72 -2.73,-1.19c-2.41,-2.47 -3.91,-5.97 -3.91,-9.84c0,-6.2 3.86,-10.2 7.95,-14.44c1.98,-2.06 4,-4.15 5.55,-6.54c0.14,0.26 0.28,0.52 0.44,0.78c4.14,7.08 10.66,12.01 10.66,20.2z" fill="#FF8E0B" opacity="0.3"></path>
                                                                <path d="M36,34c0,7 -5,12 -12,12c-2.15,0 -4.14,-0.34 -5.96,-0.97c-3.49,-2.21 -5.84,-6.33 -5.84,-11.03c0,-5.87 3.75,-9.77 7.73,-13.89c1.91,-1.99 3.86,-4.01 5.41,-6.31c4.14,7.08 10.66,12.01 10.66,20.2z" fill="#FF8E0B" opacity="0.4"></path>
                                                                <path d="M13,34c0,6.333 4.667,12 11,12c9,0 18,-6 18,-16c0,-10.952 -13,-23 -13,-23c-2,12 -16,16.143 -16,27z" fill="url(&quot;#color-1&quot;)"></path>
                                                                <path d="M38,34c0,3.29 -0.97,6.21 -2.66,8.52c-0.35,0.26 -0.71,0.49 -1.08,0.7c-0.41,0.25 -0.82,0.47 -1.24,0.68c-0.49,0.25 -1,0.47 -1.51,0.67c-0.64,0.26 -1.3,0.48 -1.98,0.67c0,0 -0.01,-0.01 -0.01,0c-1.78,0.5 -3.65,0.76 -5.52,0.76c-6.33,0 -11,-5.67 -11,-12c0,-8.37 8.32,-12.75 13.04,-19.81c0.08,-0.12 0.16,-0.24 0.24,-0.36c0.08,-0.13 0.17,-0.26 0.24,-0.39c0.08,-0.12 0.16,-0.25 0.24,-0.38c0.08,-0.14 0.16,-0.28 0.23,-0.42c1.23,2.15 2.72,4.11 4.19,6.04c3.51,4.62 6.82,8.98 6.82,15.32z" fill="#FF8E0B" opacity="0.05"></path>
                                                                <path d="M37.6,34c0,3.66 -1.23,6.85 -3.34,9.22c-0.41,0.25 -0.82,0.47 -1.24,0.68c-0.49,0.25 -1,0.47 -1.51,0.67c-0.64,0.26 -1.3,0.48 -1.98,0.67c0,0 -0.01,-0.01 -0.01,0c-1.78,0.5 -3.65,0.76 -5.52,0.76c-6.33,0 -11,-5.67 -11,-12c0,-8.37 8.32,-12.75 13.04,-19.81c0.08,-0.12 0.16,-0.24 0.24,-0.36c0.08,-0.13 0.17,-0.26 0.24,-0.39c0.08,-0.12 0.16,-0.25 0.24,-0.38c1.22,2.08 2.67,3.99 4.1,5.87c3.47,4.56 6.74,8.86 6.74,15.07z" fill="#FF8E0B" opacity="0.1"></path>
                                                                <path d="M37.2,34c0,4.06 -1.57,7.54 -4.18,9.9c-0.49,0.25 -1,0.47 -1.51,0.67c-0.64,0.26 -1.3,0.48 -1.98,0.67c0,0 -0.01,-0.01 -0.01,0c-1.78,0.5 -3.65,0.76 -5.52,0.76c-6.33,0 -11,-5.67 -11,-12c0,-8.37 8.32,-12.75 13.04,-19.81c0.08,-0.12 0.16,-0.24 0.24,-0.36c0.08,-0.13 0.17,-0.26 0.24,-0.39c1.21,2.03 2.62,3.89 4.02,5.73c3.43,4.51 6.66,8.76 6.66,14.83z" fill="#FF8E0B" opacity="0.2"></path>
                                                                <path d="M36.8,34c0,4.54 -2.02,8.32 -5.29,10.57c-0.64,0.26 -1.3,0.48 -1.98,0.67c0,0 -0.01,-0.01 -0.01,0c-1.78,0.5 -3.65,0.76 -5.52,0.76c-6.33,0 -11,-5.67 -11,-12c0,-8.37 8.32,-12.75 13.04,-19.81c0.08,-0.12 0.16,-0.24 0.24,-0.36c1.2,1.97 2.58,3.79 3.94,5.58c3.39,4.45 6.58,8.65 6.58,14.59z" fill="#FF8E0B" opacity="0.3"></path>
                                                                <path d="M36.4,34c0,5.16 -2.69,9.3 -6.87,11.24c0,0 -0.01,-0.01 -0.01,0c-1.78,0.5 -3.65,0.76 -5.52,0.76c-6.33,0 -11,-5.67 -11,-12c0,-8.37 8.32,-12.75 13.04,-19.81c1.17,1.93 2.52,3.7 3.86,5.46c3.34,4.4 6.5,8.55 6.5,14.35z" fill="#FF8E0B" opacity="0.4"></path>
                                                                <path d="M36,34c0,7 -5,12 -12,12c-11,0 -18,-9 -18,-18c0,-14 16,-26 16,-26c0,15 14,20 14,32z" fill="url(&quot;#color-2&quot;)"></path>
                                                                <path d="M21.521,3.022c0.313,7.504 4.048,12.418 7.665,17.176c3.247,4.271 6.314,8.305 6.314,13.802c0,6.771 -4.729,11.5 -11.5,11.5c-10.954,0 -17.5,-8.898 -17.5,-17.5c0,-11.818 11.838,-22.358 15.021,-24.978M22,2c0,0 -16,12 -16,26c0,9 7,18 18,18c7,0 12,-5 12,-12c0,-12 -14,-17 -14,-32z" fill="url(&quot;#color-3&quot;)"></path>
                                                            </g>
                                                        </g>
                                                    </svg>