<svg width="14" height="15" viewBox="0 0 14 15" fill="none" xmlns="http://www.w3.org/2000/svg">
<path d="M6.9922 0C5.53987 0 4.14703 0.576935 3.12008 1.60388C2.09313 2.63083 1.5162 4.02368 1.5162 5.476V8.23591C1.51631 8.35727 1.48819 8.47698 1.43406 8.58559L0.0908725 11.2712C0.0252594 11.4024 -0.00572252 11.5482 0.000869345 11.6947C0.00746121 11.8413 0.0514079 11.9837 0.128536 12.1085C0.205663 12.2333 0.313411 12.3363 0.441545 12.4077C0.569679 12.4791 0.713946 12.5166 0.860642 12.5166H13.1237C13.2704 12.5166 13.4147 12.4791 13.5428 12.4077C13.671 12.3363 13.7787 12.2333 13.8559 12.1085C13.933 11.9837 13.9769 11.8413 13.9835 11.6947C13.9901 11.5482 13.9591 11.4024 13.8935 11.2712L12.5511 8.58559C12.4967 8.47705 12.4683 8.35733 12.4682 8.23591V5.476C12.4682 4.02368 11.8913 2.63083 10.8643 1.60388C9.83736 0.576935 8.44452 0 6.9922 0ZM6.9922 14.8634C6.50667 14.8637 6.03301 14.7134 5.63651 14.4331C5.24 14.1529 4.94017 13.7566 4.77833 13.2989H9.20606C9.04422 13.7566 8.74439 14.1529 8.34788 14.4331C7.95138 14.7134 7.47772 14.8637 6.9922 14.8634Z" fill="#13275F"/>
</svg>
