<svg width="14" height="17" viewBox="0 0 14 17" fill="none" xmlns="http://www.w3.org/2000/svg">
<path fill-rule="evenodd" clip-rule="evenodd" d="M7.875 0C8.57119 0 9.23887 0.26866 9.73116 0.746878C10.2234 1.2251 10.5 1.8737 10.5 2.55V14.45C10.5 15.1263 10.2234 15.7749 9.73116 16.2531C9.23887 16.7313 8.57119 17 7.875 17H2.625C1.92881 17 1.26113 16.7313 0.768845 16.2531C0.276562 15.7749 0 15.1263 0 14.45V2.55C0 1.8737 0.276562 1.2251 0.768845 0.746878C1.26113 0.26866 1.92881 0 2.625 0H7.875ZM6.74362 5.34905C6.57954 5.1897 6.35702 5.10018 6.125 5.10018C5.89298 5.10018 5.67046 5.1897 5.50638 5.34905L2.88137 7.89905C2.71734 8.05845 2.62519 8.27461 2.62519 8.5C2.62519 8.72539 2.71734 8.94155 2.88137 9.10095L5.50638 11.651C5.6714 11.8058 5.89243 11.8915 6.12185 11.8895C6.35127 11.8876 6.57073 11.7982 6.73297 11.6406C6.8952 11.483 6.98722 11.2698 6.98921 11.0469C6.99121 10.8241 6.90301 10.6094 6.74362 10.4491L5.61225 9.35H13.125C13.3571 9.35 13.5796 9.26045 13.7437 9.10104C13.9078 8.94163 14 8.72543 14 8.5C14 8.27457 13.9078 8.05837 13.7437 7.89896C13.5796 7.73955 13.3571 7.65 13.125 7.65H5.61225L6.74362 6.55095C6.90766 6.39155 6.99981 6.17539 6.99981 5.95C6.99981 5.72461 6.90766 5.50845 6.74362 5.34905Z" fill="#13275F"/>
</svg>
