<svg width="16" height="17" viewBox="0 0 16 17" fill="none" xmlns="http://www.w3.org/2000/svg">
<path fill-rule="evenodd" clip-rule="evenodd" d="M4.25985 3.64286V4.25H2.60836C1.81046 4.25 1.14222 4.8361 1.05827 5.60919L0.00853801 15.3235C-0.0142933 15.535 0.00878949 15.7489 0.0762893 15.9512C0.143789 16.1536 0.254198 16.3398 0.400356 16.4979C0.546513 16.6559 0.725155 16.7823 0.924694 16.8688C1.12423 16.9553 1.34021 17 1.55862 17H14.4414C14.6598 17 14.8758 16.9553 15.0753 16.8688C15.2748 16.7823 15.4535 16.6559 15.5996 16.4979C15.7458 16.3398 15.8562 16.1536 15.9237 15.9512C15.9912 15.7489 16.0143 15.535 15.9915 15.3235L14.9417 5.60919C14.9015 5.23612 14.7208 4.89078 14.4346 4.63979C14.1483 4.3888 13.7768 4.24995 13.3916 4.25H11.7402V3.64286C11.7402 2.67671 11.3461 1.75014 10.6447 1.06697C9.94327 0.3838 8.99195 0 8 0C7.00805 0 6.05673 0.3838 5.35531 1.06697C4.6539 1.75014 4.25985 2.67671 4.25985 3.64286ZM8 1.21429C7.3387 1.21429 6.70448 1.47015 6.23687 1.9256C5.76926 2.38104 5.50656 2.99876 5.50656 3.64286V4.25H10.4934V3.64286C10.4934 2.99876 10.2307 2.38104 9.76313 1.9256C9.29552 1.47015 8.6613 1.21429 8 1.21429ZM5.50656 7.89286C5.50656 8.53695 5.76926 9.15467 6.23687 9.61012C6.70448 10.0656 7.3387 10.3214 8 10.3214C8.6613 10.3214 9.29552 10.0656 9.76313 9.61012C10.2307 9.15467 10.4934 8.53695 10.4934 7.89286V7.28571C10.4934 7.12469 10.5591 6.97026 10.676 6.8564C10.7929 6.74254 10.9515 6.67857 11.1168 6.67857C11.2821 6.67857 11.4407 6.74254 11.5576 6.8564C11.6745 6.97026 11.7402 7.12469 11.7402 7.28571V7.89286C11.7402 8.859 11.3461 9.78558 10.6447 10.4687C9.94327 11.1519 8.99195 11.5357 8 11.5357C7.00805 11.5357 6.05673 11.1519 5.35531 10.4687C4.6539 9.78558 4.25985 8.859 4.25985 7.89286V7.28571C4.25985 7.12469 4.32552 6.97026 4.44242 6.8564C4.55933 6.74254 4.71788 6.67857 4.88321 6.67857C5.04853 6.67857 5.20708 6.74254 5.32399 6.8564C5.44089 6.97026 5.50656 7.12469 5.50656 7.28571V7.89286Z" fill="white"/>
</svg>
