<svg width="16" height="16" viewBox="0 0 16 16" fill="none" xmlns="http://www.w3.org/2000/svg">
<path d="M1 6.25C1 5.65326 1.23705 5.08097 1.65901 4.65901C2.08097 4.23705 2.65326 4 3.25 4H11.75C12.3467 4 12.919 4.23705 13.341 4.65901C13.7629 5.08097 14 5.65326 14 6.25V6.5H14.25C14.4489 6.5 14.6397 6.57902 14.7803 6.71967C14.921 6.86032 15 7.05109 15 7.25V8.75C15 8.94891 14.921 9.13968 14.7803 9.28033C14.6397 9.42098 14.4489 9.5 14.25 9.5H14V9.75C14 10.3467 13.7629 10.919 13.341 11.341C12.919 11.7629 12.3467 12 11.75 12H3.25C2.65326 12 2.08097 11.7629 1.65901 11.341C1.23705 10.919 1 10.3467 1 9.75V6.25ZM3 6.5V9.5C3 9.63261 3.05268 9.75979 3.14645 9.85355C3.24021 9.94732 3.36739 10 3.5 10H9C9.13261 10 9.25979 9.94732 9.35355 9.85355C9.44732 9.75979 9.5 9.63261 9.5 9.5V6.5C9.5 6.36739 9.44732 6.24021 9.35355 6.14645C9.25979 6.05268 9.13261 6 9 6H3.5C3.36739 6 3.24021 6.05268 3.14645 6.14645C3.05268 6.24021 3 6.36739 3 6.5Z" fill="black"/>
</svg>
