<svg width="16" height="16" viewBox="0 0 16 16" fill="none" xmlns="http://www.w3.org/2000/svg">
<path d="M10.5 3.5H5.5C4.39543 3.5 3.5 4.39543 3.5 5.5V10.5C3.5 11.6046 4.39543 12.5 5.5 12.5H10.5C11.6046 12.5 12.5 11.6046 12.5 10.5V5.5C12.5 4.39543 11.6046 3.5 10.5 3.5Z" stroke="black" stroke-linejoin="round"/>
<path d="M5.5 3.5V1.25C5.5 1.1837 5.52634 1.12011 5.57322 1.07322C5.62011 1.02634 5.6837 1 5.75 1H10.25C10.3163 1 10.3799 1.02634 10.4268 1.07322C10.4737 1.12011 10.5 1.1837 10.5 1.25V3.5M10.5 12.5V14.75C10.5 14.8163 10.4737 14.8799 10.4268 14.9268C10.3799 14.9737 10.3163 15 10.25 15H5.75C5.6837 15 5.62011 14.9737 5.57322 14.9268C5.52634 14.8799 5.5 14.8163 5.5 14.75V12.5" stroke="black" stroke-linejoin="round"/>
</svg>
