<svg width="16" height="16" viewBox="0 0 16 16" fill="none" xmlns="http://www.w3.org/2000/svg">
<path d="M15.0977 7.66816C14.4349 4.6716 13.4374 3.07222 11.9577 2.63535C11.6467 2.5441 11.324 2.49852 10.9999 2.50004C10.5715 2.50004 10.1983 2.60441 9.80365 2.71504C9.32803 2.84847 8.78771 3.00004 7.9999 3.00004C7.21209 3.00004 6.67146 2.84879 6.1949 2.71535C5.7999 2.60441 5.42709 2.50004 4.9999 2.50004C4.66472 2.49886 4.331 2.54429 4.00834 2.63504C2.53646 3.07004 1.53959 4.66879 0.867089 7.66629C0.143964 10.8919 0.499901 12.9285 1.86521 13.401C2.05236 13.467 2.24928 13.501 2.44771 13.5016C3.38303 13.5016 4.13303 12.7225 4.64553 12.0847C5.22459 11.3628 5.9024 10.9966 7.9999 10.9966C9.87334 10.9966 10.6487 11.2507 11.3183 12.0847C11.7393 12.6091 12.1371 12.976 12.534 13.2069C13.0618 13.5138 13.5893 13.5819 14.1015 13.406C14.9083 13.1307 15.3708 12.4028 15.4765 11.2422C15.5568 10.3522 15.433 9.18316 15.0977 7.66816ZM6.4999 7.50004H5.4999V8.50004C5.4999 8.63265 5.44722 8.75982 5.35345 8.85359C5.25969 8.94736 5.13251 9.00004 4.9999 9.00004C4.86729 9.00004 4.74012 8.94736 4.64635 8.85359C4.55258 8.75982 4.4999 8.63265 4.4999 8.50004V7.50004H3.4999C3.36729 7.50004 3.24012 7.44736 3.14635 7.35359C3.05258 7.25982 2.9999 7.13265 2.9999 7.00004C2.9999 6.86743 3.05258 6.74025 3.14635 6.64648C3.24012 6.55272 3.36729 6.50004 3.4999 6.50004H4.4999V5.50004C4.4999 5.36743 4.55258 5.24025 4.64635 5.14648C4.74012 5.05272 4.86729 5.00004 4.9999 5.00004C5.13251 5.00004 5.25969 5.05272 5.35345 5.14648C5.44722 5.24025 5.4999 5.36743 5.4999 5.50004V6.50004H6.4999C6.63251 6.50004 6.75969 6.55272 6.85345 6.64648C6.94722 6.74025 6.9999 6.86743 6.9999 7.00004C6.9999 7.13265 6.94722 7.25982 6.85345 7.35359C6.75969 7.44736 6.63251 7.50004 6.4999 7.50004ZM9.1249 7.62504C9.00129 7.62504 8.88045 7.58838 8.77767 7.51971C8.67489 7.45103 8.59478 7.35342 8.54748 7.23921C8.50017 7.12501 8.4878 6.99934 8.51191 6.87811C8.53603 6.75687 8.59555 6.6455 8.68296 6.55809C8.77037 6.47069 8.88173 6.41116 9.00297 6.38705C9.12421 6.36293 9.24988 6.37531 9.36408 6.42261C9.47828 6.46992 9.57589 6.55002 9.64457 6.65281C9.71325 6.75559 9.7499 6.87642 9.7499 7.00004C9.7499 7.1658 9.68405 7.32477 9.56684 7.44198C9.44963 7.55919 9.29066 7.62504 9.1249 7.62504ZM10.4999 9.00004C10.3762 9.00004 10.2553 8.96334 10.1525 8.8946C10.0497 8.82585 9.96959 8.72815 9.92233 8.61385C9.87507 8.49956 9.86279 8.37381 9.88703 8.25253C9.91127 8.13125 9.97095 8.01989 10.0585 7.93254C10.1461 7.8452 10.2576 7.7858 10.3789 7.76186C10.5003 7.73792 10.626 7.75052 10.7402 7.79806C10.8543 7.84561 10.9518 7.92596 11.0203 8.02894C11.0888 8.13193 11.1252 8.25292 11.1249 8.3766C11.1245 8.54209 11.0585 8.70066 10.9413 8.81753C10.8241 8.9344 10.6654 9.00004 10.4999 9.00004ZM10.4999 6.25004C10.3763 6.25004 10.2555 6.21338 10.1527 6.14471C10.0499 6.07603 9.96978 5.97842 9.92248 5.86421C9.87517 5.75001 9.8628 5.62434 9.88691 5.5031C9.91103 5.38187 9.97055 5.2705 10.058 5.18309C10.1454 5.09569 10.2567 5.03616 10.378 5.01205C10.4992 4.98793 10.6249 5.00031 10.7391 5.04761C10.8533 5.09492 10.9509 5.17502 11.0196 5.27781C11.0882 5.38059 11.1249 5.50142 11.1249 5.62504C11.1249 5.7908 11.0591 5.94977 10.9418 6.06698C10.8246 6.18419 10.6657 6.25004 10.4999 6.25004ZM11.8749 7.62504C11.7513 7.62504 11.6305 7.58838 11.5277 7.51971C11.4249 7.45103 11.3448 7.35342 11.2975 7.23921C11.2502 7.12501 11.2378 6.99934 11.2619 6.87811C11.286 6.75687 11.3456 6.6455 11.433 6.55809C11.5204 6.47069 11.6317 6.41116 11.753 6.38705C11.8742 6.36293 11.9999 6.37531 12.1141 6.42261C12.2283 6.46992 12.3259 6.55002 12.3946 6.65281C12.4632 6.75559 12.4999 6.87642 12.4999 7.00004C12.4999 7.1658 12.4341 7.32477 12.3168 7.44198C12.1996 7.55919 12.0407 7.62504 11.8749 7.62504Z" fill="black"/>
</svg>
