<svg width="16" height="16" viewBox="0 0 16 16" fill="none" xmlns="http://www.w3.org/2000/svg">
<path d="M14.6095 7.77598C14.0345 5.17661 13.1817 3.51848 11.8148 3.11442C11.5501 3.03719 11.2756 2.99867 10.9998 3.00004C10.1595 3.00004 9.49638 3.50004 7.99981 3.50004C6.50325 3.50004 5.83887 3.00004 4.99981 3.00004C4.71254 2.99852 4.42646 3.03701 4.14981 3.11442C2.78106 3.51848 1.93544 5.17817 1.35387 7.77598C0.760125 10.4294 0.867625 12.526 2.02825 12.9285C2.84075 13.2097 3.56731 12.6282 4.25544 11.7722C5.03669 10.7972 5.99888 10.4972 7.99981 10.4972C10.0008 10.4972 10.9254 10.7972 11.7079 11.7722C12.3954 12.6288 13.1489 13.2032 13.9398 12.9335C15.2217 12.4957 15.2036 10.4607 14.6095 7.77598Z" stroke="black" stroke-miterlimit="10"/>
<path d="M9.125 7.625C9.47018 7.625 9.75 7.34518 9.75 7C9.75 6.65482 9.47018 6.375 9.125 6.375C8.77982 6.375 8.5 6.65482 8.5 7C8.5 7.34518 8.77982 7.625 9.125 7.625Z" fill="black"/>
<path d="M10.5 9C10.3763 9 10.2554 8.9633 10.1526 8.89456C10.0498 8.82581 9.96968 8.72811 9.92243 8.61382C9.87517 8.49952 9.86288 8.37377 9.88712 8.25249C9.91137 8.13121 9.97105 8.01985 10.0586 7.93251C10.1462 7.84516 10.2577 7.78576 10.379 7.76182C10.5004 7.73788 10.6261 7.75048 10.7403 7.79803C10.8544 7.84557 10.9519 7.92592 11.0204 8.02891C11.0889 8.13189 11.1253 8.25288 11.125 8.37656C11.1246 8.54205 11.0586 8.70062 10.9414 8.81749C10.8242 8.93437 10.6655 9 10.5 9Z" fill="black"/>
<path d="M10.5 6.25C10.8452 6.25 11.125 5.97018 11.125 5.625C11.125 5.27982 10.8452 5 10.5 5C10.1548 5 9.875 5.27982 9.875 5.625C9.875 5.97018 10.1548 6.25 10.5 6.25Z" fill="black"/>
<path d="M11.875 7.625C12.2202 7.625 12.5 7.34518 12.5 7C12.5 6.65482 12.2202 6.375 11.875 6.375C11.5298 6.375 11.25 6.65482 11.25 7C11.25 7.34518 11.5298 7.625 11.875 7.625Z" fill="black"/>
<path d="M5 5.5V8.5M6.5 7H3.5" stroke="black" stroke-linecap="round" stroke-linejoin="round"/>
</svg>
