<svg width="16" height="16" viewBox="0 0 16 16" fill="none" xmlns="http://www.w3.org/2000/svg">
<path d="M10 4.25H6C5.0335 4.25 4.25 5.0335 4.25 6V10C4.25 10.9665 5.0335 11.75 6 11.75H10C10.9665 11.75 11.75 10.9665 11.75 10V6C11.75 5.0335 10.9665 4.25 10 4.25Z" fill="black"/>
<path d="M10.5 3V1C10.5 0.867392 10.4473 0.740215 10.3536 0.646447C10.2598 0.552678 10.1326 0.5 10 0.5H6C5.86739 0.5 5.74021 0.552678 5.64645 0.646447C5.55268 0.740215 5.5 0.867392 5.5 1V3C4.83719 3.00074 4.20173 3.26438 3.73306 3.73306C3.26438 4.20173 3.00074 4.83719 3 5.5V10.5C3.00074 11.1628 3.26438 11.7983 3.73306 12.2669C4.20173 12.7356 4.83719 12.9993 5.5 13V15C5.5 15.1326 5.55268 15.2598 5.64645 15.3536C5.74021 15.4473 5.86739 15.5 6 15.5H10C10.1326 15.5 10.2598 15.4473 10.3536 15.3536C10.4473 15.2598 10.5 15.1326 10.5 15V13C11.1628 12.9993 11.7983 12.7356 12.2669 12.2669C12.7356 11.7983 12.9993 11.1628 13 10.5V5.5C12.9993 4.83719 12.7356 4.20173 12.2669 3.73306C11.7983 3.26438 11.1628 3.00074 10.5 3ZM12.25 10C12.2493 10.5965 12.0121 11.1684 11.5903 11.5903C11.1684 12.0121 10.5965 12.2493 10 12.25H6C5.40347 12.2493 4.83155 12.0121 4.40974 11.5903C3.98793 11.1684 3.75066 10.5965 3.75 10V6C3.75066 5.40347 3.98793 4.83155 4.40974 4.40974C4.83155 3.98793 5.40347 3.75066 6 3.75H10C10.5965 3.75066 11.1684 3.98793 11.5903 4.40974C12.0121 4.83155 12.2493 5.40347 12.25 6V10Z" fill="black"/>
</svg>
