<svg width="16" height="16" viewBox="0 0 16 16" fill="none" xmlns="http://www.w3.org/2000/svg">
<path d="M2.59375 12C2.1875 10.9688 1.5 9.08219 1.5 8C1.5 4.41 4.66656 1.5 8 1.5C11.3334 1.5 14.5 4.41 14.5 8C14.5 9.08219 13.7812 11.0312 13.4062 12" stroke="black" stroke-linecap="round" stroke-linejoin="round"/>
<path d="M3.38717 8.44156L2.95936 8.69156C2.01467 9.24469 1.96874 10.9544 2.85374 12.5103C3.73874 14.0663 5.22467 14.8794 6.16936 14.3266L6.59717 14.0766C6.71072 14.0089 6.79324 13.8995 6.82701 13.7717C6.86077 13.6439 6.84311 13.508 6.7778 13.3931L4.06249 8.625C4.03047 8.56833 3.98753 8.51857 3.93615 8.47861C3.88476 8.43865 3.82596 8.40929 3.76314 8.39223C3.70033 8.37517 3.63475 8.37074 3.57021 8.37921C3.50568 8.38768 3.44346 8.40887 3.38717 8.44156ZM12.6128 8.44156L13.0406 8.69156C13.9853 9.24438 14.0325 10.9541 13.1462 12.51C12.26 14.0659 10.7753 14.8791 9.83061 14.3263L9.4028 14.0763C9.28925 14.0086 9.20673 13.8992 9.17297 13.7714C9.1392 13.6436 9.15686 13.5077 9.22217 13.3928L11.9375 8.625C11.9695 8.56833 12.0124 8.51857 12.0638 8.47861C12.1152 8.43865 12.174 8.40929 12.2368 8.39223C12.2996 8.37517 12.3652 8.37074 12.4298 8.37921C12.4943 8.38768 12.5565 8.40887 12.6128 8.44156Z" stroke="black" stroke-miterlimit="10"/>
</svg>
