<svg width="24" height="24" viewBox="0 0 24 24" fill="none" xmlns="http://www.w3.org/2000/svg">
<path d="M2.27 19.27C1.92467 19.27 1.62667 19.1443 1.376 18.893C1.12533 18.6417 1 18.344 1 18H4.616C4.15533 18 3.771 17.846 3.463 17.538C3.155 17.23 3.00067 16.8453 3 16.384V5.616C3 5.15533 3.15433 4.771 3.463 4.463C3.77167 4.155 4.15567 4.00067 4.615 4H19.385C19.845 4 20.229 4.15433 20.537 4.463C20.845 4.77167 20.9993 5.156 21 5.616V16.385C21 16.845 20.8457 17.2293 20.537 17.538C20.2283 17.8467 19.8443 18.0007 19.385 18H23C23 18.3447 22.8747 18.6423 22.624 18.893C22.3733 19.1437 22.0757 19.269 21.731 19.269L2.27 19.27ZM12 18.77C12.168 18.77 12.3127 18.709 12.434 18.587C12.5553 18.465 12.616 18.3207 12.616 18.154C12.616 17.9873 12.5553 17.8427 12.434 17.72C12.3127 17.5973 12.168 17.5373 12 17.54C11.832 17.5427 11.6873 17.603 11.566 17.721C11.4447 17.839 11.384 17.9837 11.384 18.155C11.384 18.3263 11.4447 18.4707 11.566 18.588C11.6873 18.7053 11.832 18.766 12 18.77Z" fill="black"/>
</svg>
