<svg width="24" height="24" viewBox="0 0 24 24" fill="none" xmlns="http://www.w3.org/2000/svg">
<path d="M7.616 22C7.168 22 6.78667 21.8427 6.472 21.528C6.15733 21.2133 6 20.8323 6 20.385V3.615C6 3.155 6.15433 2.771 6.463 2.463C6.77167 2.155 7.156 2.00067 7.616 2H16.462C16.9087 2 17.2897 2.15733 17.605 2.472C17.9197 2.78667 18.077 3.168 18.077 3.616V6.83C18.3257 6.85667 18.5417 6.96 18.725 7.14C18.9083 7.31933 19 7.53533 19 7.788V9.557C19 9.80967 18.9083 10.0257 18.725 10.205C18.5417 10.3843 18.3257 10.4877 18.077 10.515V20.384C18.077 20.8307 17.9197 21.2117 17.605 21.527C17.2903 21.8417 16.9093 21.999 16.462 21.999L7.616 22ZM7.616 21H16.462C16.6413 21 16.7887 20.9423 16.904 20.827C17.0193 20.7117 17.077 20.5643 17.077 20.385V3.615C17.077 3.43567 17.0193 3.28833 16.904 3.173C16.7887 3.05767 16.6413 3 16.462 3H7.616C7.436 3 7.28833 3.05767 7.173 3.173C7.05767 3.28833 7 3.436 7 3.616V20.385C7 20.5643 7.05767 20.7117 7.173 20.827C7.28833 20.9423 7.436 21 7.616 21ZM12.039 19.23C12.2577 19.23 12.4403 19.1567 12.587 19.01C12.7337 18.8633 12.807 18.6803 12.807 18.461C12.807 18.2417 12.7337 18.059 12.587 17.913C12.4403 17.767 12.2573 17.6937 12.038 17.693C11.8187 17.6923 11.6357 17.7657 11.489 17.913C11.3423 18.0603 11.269 18.2433 11.269 18.462C11.269 18.6807 11.3423 18.8637 11.489 19.011C11.6357 19.1583 11.819 19.2317 12.039 19.231" fill="black"/>
</svg>
