<svg width="24" height="24" viewBox="0 0 24 24" fill="none" xmlns="http://www.w3.org/2000/svg">
<path d="M7.616 22C7.17133 22 6.791 21.8417 6.475 21.525C6.159 21.2083 6.00067 20.8287 6 20.386V3.615C6 3.155 6.15433 2.771 6.463 2.463C6.77167 2.155 7.156 2.00067 7.616 2H16.462C16.906 2 17.286 2.15833 17.602 2.475C17.918 2.79167 18.0763 3.17167 18.077 3.615V6.831C18.3257 6.85767 18.5417 6.961 18.725 7.141C18.9083 7.32033 19 7.53633 19 7.789V9.558C19 9.81067 18.9083 10.0267 18.725 10.206C18.5417 10.3853 18.3257 10.4887 18.077 10.516V20.385C18.077 20.829 17.9187 21.209 17.602 21.525C17.2853 21.841 16.9053 21.9993 16.462 22H7.616ZM12.04 19.23C12.258 19.23 12.4407 19.1567 12.588 19.01C12.7353 18.8633 12.8087 18.68 12.808 18.46C12.8073 18.24 12.7333 18.0577 12.586 17.913C12.4387 17.7683 12.2557 17.695 12.037 17.693C11.8183 17.691 11.636 17.7643 11.49 17.913C11.344 18.0617 11.2707 18.245 11.27 18.463C11.2693 18.681 11.3427 18.8637 11.49 19.011C11.638 19.1577 11.8213 19.231 12.04 19.231" fill="black"/>
</svg>
