<svg width="24" height="24" viewBox="0 0 24 24" fill="none" xmlns="http://www.w3.org/2000/svg">
<path d="M10 18.5H14C14.1326 18.5 14.2598 18.5527 14.3536 18.6464C14.4473 18.7402 14.5 18.8674 14.5 19C14.5 19.1326 14.4473 19.2598 14.3536 19.3536C14.2598 19.4473 14.1326 19.5 14 19.5H10C9.86739 19.5 9.74021 19.4473 9.64645 19.3536C9.55268 19.2598 9.5 19.1326 9.5 19C9.5 18.8674 9.55268 18.7402 9.64645 18.6464C9.74021 18.5527 9.86739 18.5 10 18.5Z" fill="black"/>
<path d="M8.179 2.5H15.821C16.363 2.5 16.801 2.5 17.154 2.529C17.519 2.559 17.839 2.622 18.135 2.772C18.6053 3.0119 18.9875 3.39451 19.227 3.865C19.378 4.161 19.441 4.481 19.471 4.845C19.4863 5.03767 19.495 5.256 19.497 5.5H19.5C19.7652 5.5 20.0196 5.60536 20.2071 5.79289C20.3946 5.98043 20.5 6.23478 20.5 6.5V17.5C20.5 17.7652 20.3946 18.0196 20.2071 18.2071C20.0196 18.3946 19.7652 18.5 19.5 18.5H19.497C19.495 18.7447 19.4863 18.9627 19.471 19.154C19.441 19.519 19.378 19.839 19.227 20.135C18.9874 20.6051 18.6051 20.9874 18.135 21.227C17.839 21.378 17.519 21.441 17.155 21.471C16.8 21.5 16.363 21.5 15.821 21.5H8.18C7.638 21.5 7.2 21.5 6.847 21.471C6.482 21.441 6.162 21.378 5.866 21.227C5.39551 20.9875 5.01289 20.6053 4.773 20.135C4.623 19.839 4.56 19.519 4.53 19.155C4.5 18.8 4.5 18.362 4.5 17.82V6.18C4.5 5.638 4.5 5.2 4.529 4.847C4.559 4.482 4.622 4.162 4.772 3.866C5.01173 3.39535 5.39435 3.01273 5.865 2.773C6.161 2.623 6.481 2.56 6.845 2.53C7.2 2.5 7.638 2.5 8.18 2.5M18.5 6.2C18.5 5.632 18.5 5.236 18.474 4.927C18.45 4.625 18.404 4.451 18.337 4.319C18.1931 4.03651 17.9635 3.80685 17.681 3.663C17.549 3.596 17.375 3.55 17.073 3.526C16.765 3.5 16.368 3.5 15.8 3.5H8.2C7.632 3.5 7.236 3.5 6.927 3.526C6.625 3.55 6.451 3.596 6.319 3.663C6.03651 3.80685 5.80685 4.03651 5.663 4.319C5.596 4.451 5.55 4.625 5.526 4.927C5.5 5.236 5.5 5.632 5.5 6.2V17.8C5.5 18.368 5.5 18.765 5.526 19.073C5.55 19.375 5.596 19.549 5.663 19.681C5.80685 19.9635 6.03651 20.1931 6.319 20.337C6.451 20.404 6.625 20.45 6.927 20.474C7.236 20.5 7.632 20.5 8.2 20.5H15.8C16.368 20.5 16.765 20.5 17.073 20.474C17.375 20.45 17.549 20.404 17.681 20.337C17.9635 20.1931 18.1931 19.9635 18.337 19.681C18.404 19.549 18.45 19.375 18.474 19.073C18.5 18.765 18.5 18.368 18.5 17.8V6.2Z" fill="black"/>
</svg>
