<svg width="24" height="24" viewBox="0 0 24 24" fill="none" xmlns="http://www.w3.org/2000/svg">
<path d="M15.83 2.25H8.17C7.635 2.25 7.19 2.25 6.825 2.28C6.445 2.31 6.089 2.378 5.752 2.55C5.23445 2.81367 4.81367 3.23445 4.55 3.752C4.378 4.089 4.31 4.445 4.28 4.825C4.25 5.19 4.25 5.635 4.25 6.17V17.83C4.25 18.365 4.25 18.81 4.28 19.175C4.31 19.555 4.378 19.911 4.55 20.248C4.81367 20.7656 5.23445 21.1863 5.752 21.45C6.089 21.622 6.445 21.69 6.825 21.72C7.19 21.75 7.635 21.75 8.17 21.75H15.83C16.365 21.75 16.81 21.75 17.175 21.72C17.555 21.69 17.911 21.622 18.248 21.45C18.7654 21.1866 19.1862 20.7662 19.45 20.249C19.622 19.911 19.69 19.555 19.72 19.175C19.7313 19.0377 19.739 18.888 19.743 18.726C20.0268 18.6698 20.2823 18.5168 20.4659 18.2932C20.6496 18.0697 20.75 17.7893 20.75 17.5V6.5C20.75 6.21068 20.6496 5.93033 20.4659 5.70676C20.2823 5.48319 20.0268 5.33024 19.743 5.274C19.7395 5.12415 19.7319 4.97442 19.72 4.825C19.69 4.445 19.622 4.089 19.45 3.752C19.1869 3.23475 18.7668 2.81401 18.25 2.55C17.912 2.378 17.556 2.31 17.176 2.28C16.811 2.25 16.366 2.25 15.831 2.25M10 18.5H14C14.1326 18.5 14.2598 18.5527 14.3536 18.6464C14.4473 18.7402 14.5 18.8674 14.5 19C14.5 19.1326 14.4473 19.2598 14.3536 19.3536C14.2598 19.4473 14.1326 19.5 14 19.5H10C9.86739 19.5 9.74021 19.4473 9.64645 19.3536C9.55268 19.2598 9.5 19.1326 9.5 19C9.5 18.8674 9.55268 18.7402 9.64645 18.6464C9.74021 18.5527 9.86739 18.5 10 18.5Z" fill="black"/>
</svg>
