<svg width="15" height="15" viewBox="0 0 15 15" fill="none" xmlns="http://www.w3.org/2000/svg">
<g clip-path="url(#clip0_172_288)">
<path d="M9.5 14.5H13.5C13.7652 14.5 14.0196 14.3946 14.2071 14.2071C14.3946 14.0196 14.5 13.7652 14.5 13.5V1.5C14.5 1.23478 14.3946 0.98043 14.2071 0.792893C14.0196 0.605357 13.7652 0.5 13.5 0.5H9.5C9.23478 0.5 8.98043 0.605357 8.79289 0.792893C8.60536 0.98043 8.5 1.23478 8.5 1.5V13.5C8.5 13.7652 8.60536 14.0196 8.79289 14.2071C8.98043 14.3946 9.23478 14.5 9.5 14.5ZM9.5 14.5H4M6.5 11.5V14.5M8.5 5.5H14.5M10 11.5H13M1.5 3.5H8.5V11.5H1.5C1.23478 11.5 0.98043 11.3946 0.792893 11.2071C0.605357 11.0196 0.5 10.7652 0.5 10.5V4.5C0.5 4.23478 0.605357 3.98043 0.792893 3.79289C0.98043 3.60536 1.23478 3.5 1.5 3.5Z" stroke="black"/>
</g>
<defs>
<clipPath id="clip0_172_288">
<rect width="15" height="15" fill="white"/>
</clipPath>
</defs>
</svg>
