<svg width="22" height="16" viewBox="0 0 22 16" fill="none" xmlns="http://www.w3.org/2000/svg">
<path d="M1.27 15.27C0.924667 15.27 0.626667 15.1443 0.376 14.893C0.125333 14.6417 0 14.344 0 14H3.616C3.15533 14 2.771 13.846 2.463 13.538C2.155 13.23 2.00067 12.8453 2 12.384V1.616C2 1.15533 2.15433 0.771 2.463 0.463C2.77167 0.155 3.15567 0.000666667 3.615 0H18.385C18.845 0 19.229 0.154333 19.537 0.463C19.845 0.771667 19.9993 1.156 20 1.616V12.385C20 12.845 19.8457 13.2293 19.537 13.538C19.2283 13.8467 18.8443 14.0007 18.385 14H22C22 14.3447 21.8747 14.6423 21.624 14.893C21.3733 15.1437 21.0757 15.269 20.731 15.269L1.27 15.27ZM11 14.77C11.168 14.77 11.3127 14.709 11.434 14.587C11.5553 14.465 11.616 14.3207 11.616 14.154C11.616 13.9873 11.5553 13.8427 11.434 13.72C11.3127 13.5973 11.168 13.5373 11 13.54C10.832 13.5427 10.6873 13.603 10.566 13.721C10.4447 13.839 10.384 13.9837 10.384 14.155C10.384 14.3263 10.4447 14.4707 10.566 14.588C10.6873 14.7053 10.832 14.766 11 14.77ZM3.616 13H18.385C18.5383 13 18.6793 12.936 18.808 12.808C18.9367 12.68 19.0007 12.5387 19 12.384V1.616C19 1.462 18.936 1.32067 18.808 1.192C18.68 1.06333 18.539 0.999333 18.385 1H3.615C3.46167 1 3.32067 1.064 3.192 1.192C3.06333 1.32 2.99933 1.46133 3 1.616V12.385C3 12.5383 3.064 12.6793 3.192 12.808C3.32 12.9367 3.461 13.0007 3.615 13" fill="black"/>
</svg>
