<svg width="40" height="40" viewBox="0 0 40 40" fill="none" xmlns="http://www.w3.org/2000/svg">
<g filter="url(#filter0_f_138_365)">
<path d="M30.5 17.4019C32.5 18.5566 32.5 21.4434 30.5 22.5981L17 30.3923C15 31.547 12.5 30.1036 12.5 27.7942L12.5 12.2058C12.5 9.89637 15 8.45299 17 9.60769L30.5 17.4019Z" fill="#13275F"/>
</g>
<path d="M35.5 17.4019C37.5 18.5566 37.5 21.4434 35.5 22.5981L14.5 34.7224C12.5 35.8771 10 34.4338 10 32.1244L10 7.87564C10 5.56624 12.5 4.12287 14.5 5.27757L35.5 17.4019Z" fill="#13275F"/>
<path d="M16 25L24 20.5L16 16" stroke="white" stroke-width="1.5" stroke-linecap="round" stroke-linejoin="round"/>
<defs>
<filter id="filter0_f_138_365" x="6.5" y="3.20129" width="31.5" height="33.5974" filterUnits="userSpaceOnUse" color-interpolation-filters="sRGB">
<feFlood flood-opacity="0" result="BackgroundImageFix"/>
<feBlend mode="normal" in="SourceGraphic" in2="BackgroundImageFix" result="shape"/>
<feGaussianBlur stdDeviation="3" result="effect1_foregroundBlur_138_365"/>
</filter>
</defs>
</svg>
