<svg width="20" height="20" viewBox="0 0 20 20" fill="none" xmlns="http://www.w3.org/2000/svg">
<path fill-rule="evenodd" clip-rule="evenodd" d="M5.7143 5.44423e-05H14.2857C17.4289 5.44423e-05 20 2.50527 20 5.57196V8.26103C17.1824 9.49687 14.34 15.6005 10.1972 14.2742C9.85597 14.5108 9.06953 15.4859 9.01435 16.2256C7.57981 16.0392 5.92599 14.4351 6.12445 12.7053C3.73676 11.0201 5.7085 7.90917 7.6019 6.65705C11.66 3.97337 17.2938 6.2814 14.16 8.20022C12.2545 9.36697 8.17966 10.1377 8.60331 7.27339C7.48551 7.58796 6.77 9.62171 8.11583 10.6815C6.86909 11.8767 7.10879 14.0736 8.44145 14.795C9.78923 11.3876 14.4802 11.8329 16.3755 7.76539C17.8015 4.70573 15.6873 1.2194 11.4605 1.75495C8.27044 2.15918 5.28027 4.78488 3.78485 7.89904C2.26756 11.0587 2.49337 15.2896 5.60896 17.422C9.27553 19.9313 13.1791 17.6078 15.5434 14.571C16.937 12.781 18.1546 10.7981 20 9.65279V14.4204C20 17.487 17.4285 20 14.2857 20H5.7143C2.57142 20 0 17.4909 0 14.4242V5.57577C0 2.50909 2.57142 0 5.7143 0V5.44423e-05Z" fill="#13275F"/>
</svg>
