<svg width="20" height="20" viewBox="0 0 20 20" fill="none" xmlns="http://www.w3.org/2000/svg">
<path d="M6.66715 9.99992C6.66715 8.15906 8.15906 6.66635 9.99992 6.66635C11.8408 6.66635 13.3335 8.15906 13.3335 9.99992C13.3335 11.8408 11.8408 13.3335 9.99992 13.3335C8.15906 13.3335 6.66715 11.8408 6.66715 9.99992ZM4.86508 9.99992C4.86508 12.8359 7.16395 15.1348 9.99992 15.1348C12.8359 15.1348 15.1348 12.8359 15.1348 9.99992C15.1348 7.16395 12.8359 4.86508 9.99992 4.86508C7.16395 4.86508 4.86508 7.16395 4.86508 9.99992ZM14.1381 4.66149C14.138 4.89882 14.2082 5.13086 14.34 5.32825C14.4718 5.52564 14.6591 5.67952 14.8784 5.77043C15.0976 5.86134 15.3389 5.8852 15.5717 5.83899C15.8045 5.79278 16.0183 5.67858 16.1862 5.51083C16.3541 5.34307 16.4685 5.1293 16.5149 4.89654C16.5613 4.66379 16.5376 4.4225 16.4469 4.20319C16.3561 3.98389 16.2024 3.79641 16.0051 3.66448C15.8078 3.53254 15.5759 3.46207 15.3385 3.46197H15.338C15.0199 3.46212 14.7149 3.58853 14.4899 3.81344C14.2649 4.03834 14.1383 4.34336 14.1381 4.66149ZM5.95995 18.1396C4.985 18.0952 4.45509 17.9328 4.10293 17.7956C3.63605 17.6139 3.30293 17.3974 2.9527 17.0476C2.60246 16.6979 2.38566 16.3651 2.2047 15.8982C2.06742 15.5462 1.90503 15.0161 1.86071 14.0412C1.81223 12.9871 1.80255 12.6705 1.80255 10C1.80255 7.32955 1.81303 7.01379 1.86071 5.95884C1.90511 4.98388 2.0687 4.45485 2.2047 4.10181C2.38646 3.63493 2.60294 3.30182 2.9527 2.95158C3.30245 2.60134 3.63525 2.38454 4.10293 2.20358C4.45493 2.0663 4.985 1.90391 5.95995 1.85959C7.01403 1.81111 7.33066 1.80143 9.99992 1.80143C12.6692 1.80143 12.9861 1.81191 14.0411 1.85959C15.016 1.90399 15.5451 2.06758 15.8981 2.20358C16.365 2.38454 16.6981 2.60182 17.0483 2.95158C17.3986 3.30134 17.6146 3.63493 17.7963 4.10181C17.9336 4.45381 18.096 4.98388 18.1403 5.95884C18.1888 7.01379 18.1985 7.32955 18.1985 10C18.1985 12.6705 18.1888 12.9862 18.1403 14.0412C18.0959 15.0161 17.9327 15.546 17.7963 15.8982C17.6146 16.3651 17.3981 16.6982 17.0483 17.0476C16.6986 17.3971 16.365 17.6139 15.8981 17.7956C15.5461 17.9329 15.016 18.0953 14.0411 18.1396C12.987 18.1881 12.6704 18.1978 9.99992 18.1978C7.32946 18.1978 7.01371 18.1881 5.95995 18.1396ZM5.87716 0.0605595C4.8126 0.109039 4.08517 0.277838 3.44989 0.525036C2.79198 0.780314 2.23502 1.12279 1.67847 1.67847C1.12191 2.23414 0.780314 2.79198 0.525036 3.44989C0.277838 4.08557 0.109039 4.8126 0.0605595 5.87716C0.0112799 6.94339 0 7.28427 0 9.99992C0 12.7156 0.0112799 13.0565 0.0605595 14.1227C0.109039 15.1873 0.277838 15.9143 0.525036 16.55C0.780314 17.2075 1.12199 17.7659 1.67847 18.3214C2.23494 18.8768 2.79198 19.2188 3.44989 19.4748C4.08637 19.722 4.8126 19.8908 5.87716 19.9393C6.94395 19.9878 7.28426 19.9998 9.99992 19.9998C12.7156 19.9998 13.0565 19.9886 14.1227 19.9393C15.1873 19.8908 15.9143 19.722 16.55 19.4748C17.2075 19.2188 17.7648 18.8771 18.3214 18.3214C18.8779 17.7657 19.2188 17.2075 19.4748 16.55C19.722 15.9143 19.8916 15.1872 19.9393 14.1227C19.9878 13.0557 19.999 12.7156 19.999 9.99992C19.999 7.28427 19.9878 6.94339 19.9393 5.87716C19.8908 4.81252 19.722 4.08517 19.4748 3.44989C19.2188 2.79238 18.8771 2.23502 18.3214 1.67847C17.7657 1.12191 17.2075 0.780314 16.5508 0.525036C15.9143 0.277838 15.1872 0.108239 14.1235 0.0605595C13.0573 0.0120799 12.7164 0 10.0007 0C7.28506 0 6.94395 0.0112799 5.87716 0.0605595Z" fill="url(#paint0_radial_215_1627)"/>
<path d="M6.66715 9.99992C6.66715 8.15906 8.15906 6.66635 9.99992 6.66635C11.8408 6.66635 13.3335 8.15906 13.3335 9.99992C13.3335 11.8408 11.8408 13.3335 9.99992 13.3335C8.15906 13.3335 6.66715 11.8408 6.66715 9.99992ZM4.86508 9.99992C4.86508 12.8359 7.16395 15.1348 9.99992 15.1348C12.8359 15.1348 15.1348 12.8359 15.1348 9.99992C15.1348 7.16395 12.8359 4.86508 9.99992 4.86508C7.16395 4.86508 4.86508 7.16395 4.86508 9.99992ZM14.1381 4.66149C14.138 4.89882 14.2082 5.13086 14.34 5.32825C14.4718 5.52564 14.6591 5.67952 14.8784 5.77043C15.0976 5.86134 15.3389 5.8852 15.5717 5.83899C15.8045 5.79278 16.0183 5.67858 16.1862 5.51083C16.3541 5.34307 16.4685 5.1293 16.5149 4.89654C16.5613 4.66379 16.5376 4.4225 16.4469 4.20319C16.3561 3.98389 16.2024 3.79641 16.0051 3.66448C15.8078 3.53254 15.5759 3.46207 15.3385 3.46197H15.338C15.0199 3.46212 14.7149 3.58853 14.4899 3.81344C14.2649 4.03834 14.1383 4.34336 14.1381 4.66149ZM5.95995 18.1396C4.985 18.0952 4.45509 17.9328 4.10293 17.7956C3.63605 17.6139 3.30293 17.3974 2.9527 17.0476C2.60246 16.6979 2.38566 16.3651 2.2047 15.8982C2.06742 15.5462 1.90503 15.0161 1.86071 14.0412C1.81223 12.9871 1.80255 12.6705 1.80255 10C1.80255 7.32955 1.81303 7.01379 1.86071 5.95884C1.90511 4.98388 2.0687 4.45485 2.2047 4.10181C2.38646 3.63493 2.60294 3.30182 2.9527 2.95158C3.30245 2.60134 3.63525 2.38454 4.10293 2.20358C4.45493 2.0663 4.985 1.90391 5.95995 1.85959C7.01403 1.81111 7.33066 1.80143 9.99992 1.80143C12.6692 1.80143 12.9861 1.81191 14.0411 1.85959C15.016 1.90399 15.5451 2.06758 15.8981 2.20358C16.365 2.38454 16.6981 2.60182 17.0483 2.95158C17.3986 3.30134 17.6146 3.63493 17.7963 4.10181C17.9336 4.45381 18.096 4.98388 18.1403 5.95884C18.1888 7.01379 18.1985 7.32955 18.1985 10C18.1985 12.6705 18.1888 12.9862 18.1403 14.0412C18.0959 15.0161 17.9327 15.546 17.7963 15.8982C17.6146 16.3651 17.3981 16.6982 17.0483 17.0476C16.6986 17.3971 16.365 17.6139 15.8981 17.7956C15.5461 17.9329 15.016 18.0953 14.0411 18.1396C12.987 18.1881 12.6704 18.1978 9.99992 18.1978C7.32946 18.1978 7.01371 18.1881 5.95995 18.1396ZM5.87716 0.0605595C4.8126 0.109039 4.08517 0.277838 3.44989 0.525036C2.79198 0.780314 2.23502 1.12279 1.67847 1.67847C1.12191 2.23414 0.780314 2.79198 0.525036 3.44989C0.277838 4.08557 0.109039 4.8126 0.0605595 5.87716C0.0112799 6.94339 0 7.28427 0 9.99992C0 12.7156 0.0112799 13.0565 0.0605595 14.1227C0.109039 15.1873 0.277838 15.9143 0.525036 16.55C0.780314 17.2075 1.12199 17.7659 1.67847 18.3214C2.23494 18.8768 2.79198 19.2188 3.44989 19.4748C4.08637 19.722 4.8126 19.8908 5.87716 19.9393C6.94395 19.9878 7.28426 19.9998 9.99992 19.9998C12.7156 19.9998 13.0565 19.9886 14.1227 19.9393C15.1873 19.8908 15.9143 19.722 16.55 19.4748C17.2075 19.2188 17.7648 18.8771 18.3214 18.3214C18.8779 17.7657 19.2188 17.2075 19.4748 16.55C19.722 15.9143 19.8916 15.1872 19.9393 14.1227C19.9878 13.0557 19.999 12.7156 19.999 9.99992C19.999 7.28427 19.9878 6.94339 19.9393 5.87716C19.8908 4.81252 19.722 4.08517 19.4748 3.44989C19.2188 2.79238 18.8771 2.23502 18.3214 1.67847C17.7657 1.12191 17.2075 0.780314 16.5508 0.525036C15.9143 0.277838 15.1872 0.108239 14.1235 0.0605595C13.0573 0.0120799 12.7164 0 10.0007 0C7.28506 0 6.94395 0.0112799 5.87716 0.0605595Z" fill="#13275F"/>
<defs>
<radialGradient id="paint0_radial_215_1627" cx="0" cy="0" r="1" gradientUnits="userSpaceOnUse" gradientTransform="translate(2.6571 20.0943) scale(26.1081 26.1081)">
<stop offset="0.09" stop-color="#FA8F21"/>
<stop offset="0.78" stop-color="#D82D7E"/>
</radialGradient>
</defs>
</svg>
