<svg width="18" height="20" viewBox="0 0 18 20" fill="none" xmlns="http://www.w3.org/2000/svg">
<path d="M8.60829 15.6465V19.9995C8.53583 19.9807 8.46399 19.9536 8.39755 19.9173L4.8042 17.8438L8.60829 15.6465Z" fill="#13275F"/>
<path d="M12.8957 17.8438L9.33309 19.8998L9.30289 19.9173C9.23587 19.9536 9.16523 19.9807 9.09155 19.9995V15.6465L12.8957 17.8438Z" fill="#13275F"/>
<path d="M13.1371 13.0332V17.4248L9.45558 15.2994L9.33301 15.2293L13.1371 13.0332Z" fill="#13275F"/>
<path d="M17.3892 15.2082C17.3282 15.271 17.2588 15.3247 17.1827 15.3676L13.6201 17.426V13.0332L17.3892 15.2082Z" fill="#13275F"/>
<path d="M17.6659 10.418V14.5312C17.6659 14.6188 17.6544 14.7057 17.6309 14.7891L13.8618 12.6141L17.6659 10.418Z" fill="#13275F"/>
<path d="M17.4242 10.0008L13.6201 12.1969V7.80469L17.4242 10.0008Z" fill="#13275F"/>
<path d="M17.6659 5.46682V9.58068L13.8618 7.38397L17.6309 5.20898C17.6544 5.29232 17.6659 5.37927 17.6659 5.46682Z" fill="#13275F"/>
<path d="M17.3892 4.79146L13.6201 6.96645V2.57422L17.1833 4.63085C17.2588 4.67553 17.3282 4.72867 17.3892 4.79146Z" fill="#13275F"/>
<path d="M13.1371 2.57422V6.96645L9.33301 4.77033L13.1371 2.57422Z" fill="#13275F"/>
<path d="M12.8957 2.15625L9.09155 4.35176V0C9.17367 0.0217337 9.25278 0.0531416 9.32644 0.09481L12.8957 2.15625Z" fill="#13275F"/>
<path d="M8.60829 0V4.35176L4.8042 2.15625L8.36435 0.100839L8.37341 0.09481C8.44768 0.0531416 8.52677 0.0217337 8.60829 0Z" fill="#13275F"/>
<path d="M8.36684 4.77033L4.56274 6.96645V2.57422L8.36684 4.77033Z" fill="#13275F"/>
<path d="M4.07973 2.57422V6.96645L0.311279 4.79146C0.37225 4.72867 0.441695 4.67493 0.517172 4.63085L4.07973 2.57422Z" fill="#13275F"/>
<path d="M3.83818 7.41366L0 9.55028L0.0647037 5.43693C0.0660813 5.34939 0.0795189 5.26264 0.104381 5.17969L3.83818 7.41366Z" fill="#13275F"/>
<path d="M4.07973 7.80469V12.1969L0.275635 10.0008L4.07973 7.80469Z" fill="#13275F"/>
<path d="M3.83828 12.6141L0.0698206 14.7891C0.0462555 14.7057 0.0341797 14.6188 0.0341797 14.5312V10.418L3.83828 12.6141Z" fill="#13275F"/>
<path d="M4.07973 13.0332V17.426L0.517172 15.3676C0.441695 15.3247 0.37225 15.271 0.311279 15.2082L1.75139 14.3767L4.07973 13.0332Z" fill="#13275F"/>
<path d="M8.36684 15.2293L8.24427 15.2994L4.56274 17.4248V13.0332L8.36684 15.2293Z" fill="#13275F"/>
<path d="M8.60837 10.1403V14.8115L4.80428 12.6154L4.56274 12.4759V7.80469L8.60837 10.1403Z" fill="#13275F"/>
<path d="M13.1372 7.80469V12.4759L12.8957 12.6154L9.09155 14.8115V10.1403L13.1372 7.80469Z" fill="#13275F"/>
<path d="M12.8955 7.38443L8.84983 9.72061L4.8042 7.38443L8.60829 5.18831L8.84983 5.04883L9.09135 5.18831L12.8955 7.38443Z" fill="#13275F"/>
</svg>
