<svg width="20" height="20" viewBox="0 0 20 20" fill="none" xmlns="http://www.w3.org/2000/svg">
<path d="M9.99992 19.9998C15.5227 19.9998 19.9998 15.5227 19.9998 9.99992C19.9998 4.47713 15.5227 0 9.99992 0C4.47713 0 0 4.47713 0 9.99992C0 15.5227 4.47713 19.9998 9.99992 19.9998Z" fill="#13275F"/>
<path d="M4.16573 9.92522C4.16573 9.92522 9.17259 7.87088 10.9091 7.14749C11.5747 6.85816 13.8321 5.93222 13.8321 5.93222C13.8321 5.93222 14.874 5.52716 14.7872 6.51092C14.7582 6.91602 14.5267 8.3338 14.2952 9.86736C13.9479 12.0375 13.5717 14.4101 13.5717 14.4101C13.5717 14.4101 13.5138 15.0756 13.0218 15.1914C12.5298 15.3071 11.7194 14.7863 11.5747 14.6705C11.4589 14.5837 9.40411 13.2817 8.65164 12.6451C8.44904 12.4715 8.21752 12.1243 8.68056 11.7192C9.72247 10.7643 10.9669 9.57803 11.7194 8.82573C12.0667 8.47849 12.414 7.66832 10.9669 8.65209C8.91212 10.0699 6.88622 11.4009 6.88622 11.4009C6.88622 11.4009 6.42314 11.6902 5.55491 11.4298C4.68664 11.1694 3.6737 10.8222 3.6737 10.8222C3.6737 10.8222 2.97914 10.3882 4.16573 9.92522Z" fill="white"/>
</svg>
