<svg width="20" height="20" viewBox="0 0 20 20" fill="none" xmlns="http://www.w3.org/2000/svg">
<path d="M16.989 2.91902C15.1484 1.04119 12.6236 -0.0122869 9.99444 0.000108155H9.97768C4.56319 0.000125088 0.107577 4.45576 0.107577 9.87026C0.107577 9.89566 0.108118 9.92054 0.108118 9.94595C0.128513 11.6674 0.574161 13.3572 1.4054 14.8648L0 19.9998L5.23777 18.6485C6.68471 19.4429 8.31142 19.8524 9.96202 19.8377C15.3965 19.808 19.8516 15.3269 19.8484 9.89189C19.8613 7.28057 18.8316 4.76926 16.989 2.91902ZM9.99444 18.162C8.53131 18.1697 7.09393 17.7771 5.83775 17.0269L5.51343 16.8648L2.39456 17.6756L3.20535 14.5945L2.98915 14.2702C2.18602 12.9734 1.76053 11.4783 1.76051 9.95296C1.76051 5.45466 5.46209 1.75307 9.96041 1.75307C14.4587 1.75307 18.1603 5.45466 18.1603 9.95296C18.1603 12.7854 16.6927 15.4242 14.2863 16.9188C13.0135 17.7341 11.533 18.1657 10.0215 18.162M14.7728 12.1621L14.1782 11.8919C14.1782 11.8919 13.3133 11.5135 12.7728 11.2432C12.7187 11.2432 12.6647 11.1892 12.6106 11.1892C12.4774 11.1925 12.3471 11.2297 12.2322 11.2973C12.1171 11.3648 12.1782 11.3513 11.4215 12.2162C11.3701 12.3173 11.2647 12.3805 11.1512 12.3783H11.0971C11.0159 12.3647 10.9406 12.3271 10.8809 12.2702L10.6107 12.1621C10.0308 11.9166 9.49977 11.5687 9.0431 11.1351C8.935 11.027 8.77285 10.9189 8.66473 10.8108C8.26458 10.4275 7.91901 9.99095 7.63773 9.51351L7.58367 9.40541C7.53671 9.33934 7.50025 9.2664 7.47556 9.18919C7.46143 9.09556 7.48055 8.99993 7.52961 8.91894C7.57881 8.83785 7.74583 8.64865 7.90799 8.4865C8.07016 8.32435 8.07016 8.21624 8.17826 8.10813C8.23382 8.03097 8.27221 7.9428 8.29086 7.84957C8.30951 7.75633 8.30797 7.66018 8.28636 7.56759C8.03445 6.86816 7.74577 6.18253 7.42151 5.51357C7.3346 5.3784 7.19919 5.28168 7.04314 5.2433H6.44855C6.34045 5.2433 6.23235 5.29735 6.12423 5.29735L6.07018 5.3514C5.96208 5.40545 5.85397 5.51357 5.74585 5.56762C5.63775 5.62167 5.5837 5.78384 5.4756 5.89194C5.09772 6.36946 4.88864 6.95869 4.88101 7.56759C4.887 7.99591 4.9789 8.41867 5.15126 8.81082L5.20533 8.97297C5.69068 10.0107 6.36946 10.9463 7.20531 11.7297L7.42151 11.9459C7.57885 12.0762 7.72362 12.221 7.85394 12.3783C8.97391 13.3529 10.3042 14.0556 11.7404 14.4324C11.9025 14.4864 12.1187 14.4864 12.2809 14.5405H12.8214C13.104 14.5265 13.3803 14.4528 13.6322 14.3243C13.7647 14.2643 13.8911 14.1918 14.0106 14.108L14.1187 13.9999C14.2268 13.8918 14.3349 13.8378 14.443 13.7297C14.5487 13.6355 14.6398 13.5262 14.7133 13.4054C14.8171 13.1632 14.89 12.9091 14.9295 12.6486V12.2702C14.8809 12.2266 14.8263 12.1902 14.7674 12.1621" fill="#13275F"/>
</svg>
