<svg width="29" height="30" viewBox="0 0 29 30" fill="none" xmlns="http://www.w3.org/2000/svg">
<path d="M28.6032 9.58026C28.0573 4.44912 24.4546 0.955569 19.3235 0.409703C16.1028 0.0821825 12.773 0.0821825 9.49785 0.409703C4.47587 0.955569 0.982322 4.33994 0.218108 9.19816C-0.0548253 10.9449 0.108936 12.6917 0.108936 14.4931C0.163523 14.4931 0.0543498 14.4931 0.108936 14.4931C0.108936 15.8577 -0.000240264 17.277 0.0543464 18.6417C0.218107 24.4278 4.63963 28.8494 10.4258 29.0131C13.1006 29.0677 15.7207 29.0677 18.3955 29.0131C23.472 28.9039 27.7844 25.465 28.494 20.4976C28.9307 16.9495 28.9853 13.183 28.6032 9.58026ZM6.60475 9.25274C6.71392 7.83349 8.07859 6.63258 9.49785 6.79634C10.9171 6.9601 11.9542 8.16101 11.8997 9.52568C11.7905 10.9995 10.535 12.0913 9.06115 11.9821C7.58731 11.8729 6.49558 10.672 6.60475 9.25274ZM21.1794 15.5302C21.1794 15.6394 21.1794 15.694 21.1794 15.8031C21.1794 15.8577 21.1794 15.8577 21.1794 15.9123C21.1248 16.5674 20.9611 17.1678 20.6881 17.7683C20.0877 19.0783 19.2143 20.0609 18.0134 20.8251C17.3583 21.2072 16.7033 21.4802 15.9937 21.6439C15.7207 21.6985 15.3932 21.6985 15.1203 21.7531C15.0111 21.7531 14.9019 21.7531 14.7928 21.7531C14.629 21.7531 14.4106 21.7531 14.2469 21.7531C14.1923 21.7531 14.1377 21.7531 14.0831 21.7531C14.0285 21.7531 13.9194 21.7531 13.8648 21.7531C12.3364 21.6439 11.0263 20.9889 9.93454 19.8971C9.00657 18.9692 8.35152 17.8774 8.07859 16.6219C8.024 16.349 8.024 16.1307 7.96942 15.8577C7.96942 15.8031 7.96942 15.694 7.96942 15.6394C7.96942 15.5302 7.96942 15.4756 7.96942 15.3665C8.07859 15.3665 8.07859 15.2573 8.07859 15.2027C8.29693 14.766 8.73363 14.4931 9.22491 14.5477C9.71619 14.6568 10.0437 14.9843 10.1529 15.5302C10.4258 17.6591 11.7905 19.1875 13.8648 19.5696C16.4304 20.0609 18.9959 18.1504 19.1597 15.5302C19.2143 14.9298 19.5418 14.6022 20.0877 14.4385V14.3839C20.1968 14.3839 20.306 14.3839 20.4152 14.3839C20.4152 14.3839 20.4152 14.3839 20.4152 14.4385C20.9065 14.4931 21.234 14.766 21.3432 15.3119C21.1794 15.3665 21.1794 15.4756 21.1794 15.5302ZM19.5964 11.9821C18.1225 12.0367 16.867 10.8903 16.8125 9.4165C16.8125 7.99725 17.9042 6.85093 19.3235 6.74176C20.7973 6.68717 22.0528 7.83349 22.0528 9.30733C22.1074 10.7812 21.0156 11.9275 19.5964 11.9821Z" fill="#F03A50"/>
</svg>
