<svg width="23" height="25" viewBox="0 0 23 25" fill="none" xmlns="http://www.w3.org/2000/svg">
<path d="M16.292 21H6.70866C3.83366 21 1.91699 19.5 1.91699 16V9C1.91699 5.5 3.83366 4 6.70866 4H16.292C19.167 4 21.0837 5.5 21.0837 9V16C21.0837 19.5 19.167 21 16.292 21Z" stroke="#021959" stroke-width="1.5" stroke-miterlimit="10" stroke-linecap="round" stroke-linejoin="round"/>
<path d="M5.75 8.5V16.5" stroke="#021959" stroke-width="1.5" stroke-miterlimit="10" stroke-linecap="round" stroke-linejoin="round"/>
<path d="M8.625 8.5V12.5" stroke="#021959" stroke-width="1.5" stroke-miterlimit="10" stroke-linecap="round" stroke-linejoin="round"/>
<path d="M8.625 15.5V16.5" stroke="#021959" stroke-width="1.5" stroke-miterlimit="10" stroke-linecap="round" stroke-linejoin="round"/>
<path d="M14.375 8.5V9.5" stroke="#021959" stroke-width="1.5" stroke-miterlimit="10" stroke-linecap="round" stroke-linejoin="round"/>
<path d="M11.5 8.5V16.5" stroke="#021959" stroke-width="1.5" stroke-miterlimit="10" stroke-linecap="round" stroke-linejoin="round"/>
<path d="M14.375 12.5V16.5" stroke="#021959" stroke-width="1.5" stroke-miterlimit="10" stroke-linecap="round" stroke-linejoin="round"/>
<path d="M17.25 8.5V16.5" stroke="#021959" stroke-width="1.5" stroke-miterlimit="10" stroke-linecap="round" stroke-linejoin="round"/>
<circle cx="5.52734" cy="17.25" r="5.52734" fill="#17C76F"/>
<path d="M3.6084 17.4717L4.88608 18.6705L7.44595 16.2728" stroke="white" stroke-width="2" stroke-linecap="round" stroke-linejoin="round"/>
</svg>
