<svg width="50" height="33" viewBox="0 0 50 33" fill="none" xmlns="http://www.w3.org/2000/svg">
<path d="M20.8673 20.5988C20.4914 20.5988 20.1191 20.5248 19.7718 20.3809C19.4245 20.2371 19.1089 20.0262 18.8431 19.7604C18.5773 19.4946 18.3664 19.179 18.2226 18.8317C18.0787 18.4844 18.0047 18.1121 18.0047 17.7362V3.42122C18.0047 3.04529 18.0787 2.67305 18.2226 2.32574C18.3664 1.97843 18.5773 1.66286 18.8431 1.39704C19.1089 1.13122 19.4245 0.920358 19.7718 0.776497C20.1191 0.632637 20.4914 0.558594 20.8673 0.558594C21.2432 0.558594 21.6155 0.632637 21.9628 0.776497C22.3101 0.920358 22.6257 1.13122 22.8915 1.39704C23.1573 1.66286 23.3681 1.97843 23.512 2.32574C23.6559 2.67305 23.7299 3.04529 23.7299 3.42122V17.7362C23.7299 19.3156 22.4485 20.5988 20.8673 20.5988ZM10.8472 23.4614H3.68782C2.9286 23.4614 2.20048 23.1599 1.66364 22.623C1.12679 22.0862 0.825195 21.358 0.825195 20.5988C0.825195 19.8396 1.12679 19.1115 1.66364 18.5746C2.20048 18.0378 2.9286 17.7362 3.68782 17.7362H9.41493V9.14647C9.41493 8.38725 9.71653 7.65913 10.2534 7.12229C10.7902 6.58544 11.5183 6.28384 12.2776 6.28384C13.0368 6.28384 13.7649 6.58544 14.3017 7.12229C14.8386 7.65913 15.1402 8.38725 15.1402 9.14647V19.1684C15.1392 20.3067 14.6866 21.3981 13.8817 22.203C13.0768 23.0078 11.9854 23.4605 10.8472 23.4614Z" fill="white"/>
<path d="M28.0117 29.1886H20.8672C20.108 29.1886 19.3799 28.887 18.8431 28.3502C18.3062 27.8133 18.0046 27.0852 18.0046 26.326C18.0046 25.5668 18.3062 24.8387 18.8431 24.3018C19.3799 23.765 20.108 23.4634 20.8672 23.4634H26.5944V14.8736C26.5944 14.4977 26.6684 14.1255 26.8123 13.7782C26.9561 13.4309 27.167 13.1153 27.4328 12.8495C27.6986 12.5836 28.0142 12.3728 28.3615 12.2289C28.7088 12.0851 29.0811 12.011 29.457 12.011C29.8329 12.011 30.2051 12.0851 30.5525 12.2289C30.8998 12.3728 31.2153 12.5836 31.4812 12.8495C31.747 13.1153 31.9578 13.4309 32.1017 13.7782C32.2456 14.1255 32.3196 14.4977 32.3196 14.8736V24.8807C32.3186 26.0229 31.8644 27.1181 31.0568 27.9258C30.2491 28.7335 29.1539 29.1876 28.0117 29.1886ZM46.6364 23.4615H39.5162C38.3676 23.4605 37.2662 23.0038 36.454 22.1916C35.6418 21.3794 35.1851 20.278 35.1841 19.1294V6.28204C35.1841 5.52283 35.4857 4.79471 36.0225 4.25786C36.5594 3.72102 37.2875 3.41942 38.0467 3.41942C38.8059 3.41942 39.534 3.72102 40.0709 4.25786C40.6077 4.79471 40.9093 5.52283 40.9093 6.28204V17.7344H46.6364C47.3959 17.7344 48.1243 18.0361 48.6613 18.5731C49.1983 19.1101 49.5 19.8385 49.5 20.598C49.5 21.3574 49.1983 22.0858 48.6613 22.6228C48.1243 23.1598 47.3959 23.4615 46.6364 23.4615Z" fill="white"/>
<path d="M29.457 9.14467C31.038 9.14467 32.3196 7.86303 32.3196 6.28204C32.3196 4.70106 31.038 3.41942 29.457 3.41942C27.876 3.41942 26.5944 4.70106 26.5944 6.28204C26.5944 7.86303 27.876 9.14467 29.457 9.14467Z" fill="white"/>
<path d="M38.0468 32.0512C39.6277 32.0512 40.9094 30.7696 40.9094 29.1886C40.9094 27.6076 39.6277 26.326 38.0468 26.326C36.4658 26.326 35.1841 27.6076 35.1841 29.1886C35.1841 30.7696 36.4658 32.0512 38.0468 32.0512Z" fill="white"/>
</svg>
