<svg width="24" height="25" viewBox="0 0 24 25" fill="none" xmlns="http://www.w3.org/2000/svg">
<path d="M3.16992 7.93994L11.9999 13.0499L20.7699 7.96991" stroke="#021959" stroke-width="1.5" stroke-linecap="round" stroke-linejoin="round"/>
<path d="M12 22.1099V13.0399" stroke="#021959" stroke-width="1.5" stroke-linecap="round" stroke-linejoin="round"/>
<path d="M9.92963 2.98L4.58963 5.95003C3.37963 6.62003 2.38965 8.30001 2.38965 9.68001V15.33C2.38965 16.71 3.37963 18.39 4.58963 19.06L9.92963 22.03C11.0696 22.66 12.9396 22.66 14.0796 22.03L19.4196 19.06C20.6296 18.39 21.6196 16.71 21.6196 15.33V9.68001C21.6196 8.30001 20.6296 6.62003 19.4196 5.95003L14.0796 2.98C12.9296 2.34 11.0696 2.34 9.92963 2.98Z" stroke="#021959" stroke-width="1.5" stroke-linecap="round" stroke-linejoin="round"/>
<path d="M16.9998 13.74V10.08L7.50977 4.59998" stroke="#021959" stroke-width="1.5" stroke-linecap="round" stroke-linejoin="round"/>
<circle cx="5.52734" cy="17.575" r="5.52734" fill="#17C76F"/>
<path d="M3.6084 17.7966L4.88608 18.9955L7.44595 16.5978" stroke="white" stroke-width="2" stroke-linecap="round" stroke-linejoin="round"/>
</svg>
