<svg width="36" height="9" viewBox="0 0 36 9" fill="none" xmlns="http://www.w3.org/2000/svg">
<path d="M6.96702 4.65116L2.47807 4.67228L1.97027 6.53274H5.22021V8.32979H6.9467V4.65116H6.96702ZM19.2558 0H17.5496V1.86573L19.2558 1.7759V0ZM17.4887 5.30654C17.4887 5.64481 17.3668 5.91964 17.1433 6.17335C16.9199 6.40591 16.6356 6.53274 16.3105 6.53274H11.4154V6.5539H11.131C10.806 6.5539 10.3185 6.5539 9.9529 6.57505C9.9529 6.57505 9.9529 5.68708 9.9529 5.34884V0.126848H8.24669V5.34884C8.24669 6.17335 8.24669 8.37209 8.24669 8.37209C8.81541 8.37209 10.3388 8.37209 11.131 8.37209H11.5169V8.35094H16.2903C17.0824 8.35094 17.773 8.05497 18.3418 7.46298C18.9105 6.87102 19.1949 6.17335 19.1949 5.32769V4.63001H17.4684L17.4887 5.30654ZM15.1528 1.79705L14.4012 3.59406H19.2558V1.7759L15.1528 1.79705ZM0 1.90274L0.507801 3.72093L6.98734 3.74208V0.105707H5.26081V1.90274H0Z" fill="#E80645"/>
<path d="M29.3674 2.67737H28.0363C28.104 2.44362 28.262 2.23115 28.4875 2.08241C28.7131 1.93367 28.9387 1.84867 29.2095 1.84867H29.5929L30.1795 0.0424983H29.232C28.3747 0.0424983 27.6303 0.339984 26.9986 0.913706C26.3895 1.48743 26.0737 2.18865 26.0737 3.01735V3.56984L26.0963 4.4623H28.3973C28.3973 4.50477 28.3973 5.48224 28.3747 5.52475C28.3296 5.77972 28.1717 6.01347 27.901 6.26844C27.6754 6.43845 27.4047 6.52345 27.1114 6.52345H24.1562C23.7952 6.52345 23.4794 6.39595 23.2312 6.16221C22.9831 5.92846 22.8477 5.63098 22.8477 5.291V2.80487C22.8477 2.57113 22.9605 2.37989 23.141 2.20988C23.3892 1.97617 23.6599 1.8699 23.9983 1.8699H25.0811L25.1037 0.0637457H23.9983C23.141 0.0637457 22.3965 0.361231 21.7874 0.934957C21.246 1.44493 20.9528 2.06114 20.9302 2.74114V5.26977C20.9302 6.09847 21.246 6.82093 21.8777 7.41589C22.5093 8.01088 23.2538 8.30836 24.1562 8.30836H27.1114C27.9912 8.30836 28.7583 8.01088 29.3899 7.41589C29.7734 7.05467 30.0441 6.62969 30.202 6.18347C30.2697 5.97096 30.2923 5.73722 30.3148 5.48225C30.3148 5.41851 30.3148 4.4198 30.3374 4.35603V3.54857C30.3374 3.31486 30.2472 3.10235 30.0441 2.91111C29.8411 2.76237 29.6155 2.67737 29.3674 2.67737ZM31.4654 8.37209H33.3829V2.5499H31.4654V8.37209ZM35.9999 1.8274V0H31.4879L30.4276 1.8699H34.0596V3.67607H35.9774L35.9999 1.8274Z" fill="#E80645"/>
</svg>
