<svg width="81" height="35" viewBox="0 0 81 35" fill="none" xmlns="http://www.w3.org/2000/svg">
<path d="M70.0827 -2.53199C76.9249 -11.337 83.9351 -20.3384 100.837 -20.833V36.667H-14.051C-5.08691 19.355 22.6113 19.726 36.26 16.7583C49.9087 13.7905 59.8971 10.5755 70.0827 -2.53199Z" fill="white" fill-opacity="0.21"/>
<path d="M71.3853 0.0587559C77.922 -9.34751 82.5976 -18.6509 100.837 -19.167V40.833H-23.1428C-13.4693 22.7684 20.3841 24.7038 39.5095 21.6071C49.8417 19.9341 57.7557 19.6716 71.3853 0.0587559Z" fill="white" fill-opacity="0.21"/>
<path d="M78.3939 3.83148C84.2281 -3.32748 90.1755 -10.6126 101.413 -13.606C106.855 -15.0557 111.582 -10.3492 111.582 -4.71705V34.1667C111.582 39.6895 107.148 44.1667 101.625 44.1667H4.36991C-3.21245 44.1667 -6.96982 36.4033 -0.21145 32.9658C12.9026 26.2956 31.312 25.875 41.8945 23.6809C56.6233 20.6271 67.4022 17.3189 78.3939 3.83148Z" fill="#E80645"/>
</svg>
