<svg width="25" height="25" viewBox="0 0 25 25" fill="none" xmlns="http://www.w3.org/2000/svg">
<path d="M19.5304 8.41998V13.57C19.5304 16.65 17.7704 17.97 15.1304 17.97H6.34042C5.89042 17.97 5.46042 17.93 5.06042 17.84C4.81042 17.8 4.57043 17.73 4.35043 17.65C2.85043 17.09 1.94043 15.79 1.94043 13.57V8.41998C1.94043 5.33998 3.70042 4.02002 6.34042 4.02002H15.1304C17.3704 4.02002 18.9804 4.97001 19.4104 7.14001C19.4804 7.54001 19.5304 7.94998 19.5304 8.41998Z" stroke="#021959" stroke-width="1.5" stroke-miterlimit="10" stroke-linecap="round" stroke-linejoin="round"/>
<path d="M22.5315 11.4201V16.5701C22.5315 19.6501 20.7715 20.9701 18.1315 20.9701H9.34152C8.60152 20.9701 7.93153 20.8701 7.35153 20.6501C6.16153 20.2101 5.35152 19.3001 5.06152 17.8401C5.46152 17.9301 5.89152 17.9701 6.34152 17.9701H15.1315C17.7715 17.9701 19.5315 16.6501 19.5315 13.5701V8.4201C19.5315 7.9501 19.4915 7.53014 19.4115 7.14014C21.3115 7.54014 22.5315 8.88011 22.5315 11.4201Z" stroke="#021959" stroke-width="1.5" stroke-miterlimit="10" stroke-linecap="round" stroke-linejoin="round"/>
<path d="M10.7289 13.6399C12.1869 13.6399 13.3689 12.4579 13.3689 10.9999C13.3689 9.54185 12.1869 8.35986 10.7289 8.35986C9.27085 8.35986 8.08887 9.54185 8.08887 10.9999C8.08887 12.4579 9.27085 13.6399 10.7289 13.6399Z" stroke="#021959" stroke-width="1.5" stroke-miterlimit="10" stroke-linecap="round" stroke-linejoin="round"/>
<path d="M5.01074 8.80005V13.2001" stroke="#021959" stroke-width="1.5" stroke-miterlimit="10" stroke-linecap="round" stroke-linejoin="round"/>
<path d="M16.4521 8.80029V13.2003" stroke="#021959" stroke-width="1.5" stroke-miterlimit="10" stroke-linecap="round" stroke-linejoin="round"/>
<circle cx="5.75781" cy="17.2773" r="5.52734" fill="#17C76F"/>
<path d="M3.83887 17.499L5.11655 18.6979L7.67642 16.3002" stroke="white" stroke-width="2" stroke-linecap="round" stroke-linejoin="round"/>
</svg>
