<svg width="20" height="20" viewBox="0 0 20 20" fill="none" xmlns="http://www.w3.org/2000/svg">
<path fill-rule="evenodd" clip-rule="evenodd" d="M0.892892 0C0.656082 0 0.428972 0.0940686 0.261522 0.261512C0.0940722 0.428955 0 0.656057 0 0.892857C0 1.12966 0.0940722 1.35676 0.261522 1.5242C0.428972 1.69165 0.656082 1.78571 0.892892 1.78571H3.49014L3.783 4.55714L4.70304 13.2786C4.76343 13.8496 5.03324 14.3781 5.46037 14.762C5.88751 15.1458 6.4417 15.3579 7.01599 15.3571H15.8849C16.9507 15.3571 17.8807 14.6343 18.1407 13.6L19.9308 6.45714C20.0163 6.11454 20.0227 5.75693 19.9493 5.41151C19.8759 5.06609 19.7247 4.74196 19.5072 4.46374C19.2897 4.18552 19.0117 3.96055 18.6942 3.80593C18.3767 3.65131 18.0281 3.57111 17.675 3.57143H5.4745L5.18163 0.8C5.15869 0.580623 5.05535 0.377501 4.89154 0.229786C4.72773 0.0820697 4.51503 0.000215577 4.29445 0L0.892892 0ZM6.47882 13.0914L5.66308 5.35714H17.675C18.0278 5.35714 18.2821 5.68571 18.1978 6.02286L16.4078 13.1657C16.3775 13.2815 16.3099 13.3841 16.2153 13.4575C16.1208 13.5308 16.0046 13.5709 15.8849 13.5714H7.01599C6.88289 13.5722 6.75425 13.5235 6.65501 13.4348C6.55577 13.3461 6.49298 13.2238 6.47882 13.0914ZM6.35167 16.7857C6.77793 16.7857 7.18673 16.955 7.48814 17.2564C7.78955 17.5578 7.95888 17.9666 7.95888 18.3929C7.95888 18.8191 7.78955 19.2279 7.48814 19.5293C7.18673 19.8307 6.77793 20 6.35167 20C5.92542 20 5.51662 19.8307 5.21521 19.5293C4.9138 19.2279 4.74447 18.8191 4.74447 18.3929C4.74447 17.9666 4.9138 17.5578 5.21521 17.2564C5.51662 16.955 5.92542 16.7857 6.35167 16.7857ZM15.6377 16.7857C16.064 16.7857 16.4728 16.955 16.7742 17.2564C17.0756 17.5578 17.245 17.9666 17.245 18.3929C17.245 18.8191 17.0756 19.2279 16.7742 19.5293C16.4728 19.8307 16.064 20 15.6377 20C15.2115 20 14.8027 19.8307 14.5013 19.5293C14.1999 19.2279 14.0305 18.8191 14.0305 18.3929C14.0305 17.9666 14.1999 17.5578 14.5013 17.2564C14.8027 16.955 15.2115 16.7857 15.6377 16.7857Z" fill="white"/>
</svg>
