<svg width="24" height="25" viewBox="0 0 24 25" fill="none" xmlns="http://www.w3.org/2000/svg">
<path d="M13 9.5H7" stroke="#021959" stroke-width="1.5" stroke-linecap="round" stroke-linejoin="round"/>
<path d="M22.0002 11.4699V13.53C22.0002 14.08 21.5602 14.5299 21.0002 14.5499H19.0402C17.9602 14.5499 16.9702 13.7599 16.8802 12.6799C16.8202 12.0499 17.0602 11.4599 17.4802 11.0499C17.8502 10.6699 18.3602 10.45 18.9202 10.45H21.0002C21.5602 10.47 22.0002 10.9199 22.0002 11.4699Z" stroke="#021959" stroke-width="1.5" stroke-linecap="round" stroke-linejoin="round"/>
<path d="M17.48 11.05C17.06 11.46 16.82 12.05 16.88 12.68C16.97 13.76 17.96 14.55 19.04 14.55H21V16C21 19 19 21 16 21H7C4 21 2 19 2 16V9C2 6.28 3.64 4.38 6.19 4.06C6.45 4.02 6.72 4 7 4H16C16.26 4 16.51 4.00999 16.75 4.04999C19.33 4.34999 21 6.26 21 9V10.45H18.92C18.36 10.45 17.85 10.67 17.48 11.05Z" stroke="#021959" stroke-width="1.5" stroke-linecap="round" stroke-linejoin="round"/>
<circle cx="5.52734" cy="16.9727" r="5.52734" fill="#17C76F"/>
<path d="M3.6084 17.1943L4.88608 18.3932L7.44595 15.9955" stroke="white" stroke-width="2" stroke-linecap="round" stroke-linejoin="round"/>
</svg>
